# xmcd
#
# Track frame offsets:
#	150
#	12759
#	24641
#	37767
#	52437
#	64934
#	76628
#	90346
#	100884
#	114133
#	126070
#	137925
#	150724
#	163680
#	175446
#	186440
#	198479
#	210727
#	221731
#	233231
#
# Disc length: 3264 seconds
#
# Revision: 0
# Processed by: cddbd v1.4PL0 Copyright (c) Steve Scherf et al.
# Submitted via: EasyCDDAExtractor 4.6.9.1
#
DISCID=140cbe14
DTITLE=B.B.King - The Blues
DYEAR=1900
DGENRE=Blues
TTITLE0=Why Do Things Happen To Me
TTITLE1=Ruby Lee
TTITLE2=When My Heart Beats Like A Hammer
TTITLE3=Past Day
TTITLE4=Boogie Woogie Woman
TTITLE5=Early In The Morning
TTITLE6=I Want To Get Married
TTITLE7=That Ain't The Way Do It
TTITLE8=Troubles,troubles,troubles
TTITLE9=Don't You Want A Man Like Me
TTITLE10=You Know I Go For You
TTITLE11=What Can I Do
TTITLE12=Please Love Me
TTITLE13=Everyday I Have The Blues
TTITLE14=Let's Do The Boogie
TTITLE15=Dark Is The Night Part 1
TTITLE16=Dark Is The Night Part 2
TTITLE17=You Don't Know
TTITLE18=Mean Ole Frisco
TTITLE19=Please Accept My Love
EXTD=
EXTT0=
EXTT1=
EXTT2=
EXTT3=
EXTT4=
EXTT5=
EXTT6=
EXTT7=
EXTT8=
EXTT9=
EXTT10=
EXTT11=
EXTT12=
EXTT13=
EXTT14=
EXTT15=
EXTT16=
EXTT17=
EXTT18=
EXTT19=
PLAYORDER=
